# xmcd CD database file
#
# Track frame offsets:
#	150
#	14400
#	35164
#	52078
#	74392
#	93002
#	105069
#	122373
#	137714
#
# Disc length: 2046 seconds
#
# Revision: 0
# Processed by: cddbd v1.5.2PL0 Copyright (c) Steve Scherf et al.
# Submitted via: CDex 1.70beta3
#
DISCID=6f07fc09
DTITLE=Jim Robinson's New Orleans Band, Billie and De De Pierce  - Jazz At Preservation Hall 2
DYEAR=1962
DGENRE=Jazz
TTITLE0=My Bucket's Got A Hole In It
TTITLE1=Five Foot Two Eyes Of Blue
TTITLE2=You Tell Me Your Dream
TTITLE3=Gettysburg March
TTITLE4=Love Songs Of The Nile
TTITLE5=Shake It and Break It
TTITLE6=Shine
TTITLE7=San
TTITLE8=Ciribiribin
EXTD=YEAR: 1962
EXTT0=
EXTT1=
EXTT2=
EXTT3=
EXTT4=
EXTT5=
EXTT6=
EXTT7=
EXTT8=
PLAYORDER=
